<?xml version="1.0" encoding="utf-8"?>
<!-- Generator: Adobe Illustrator 21.1.0, SVG Export Plug-In . SVG Version: 6.00 Build 0)  -->
<svg version="1.1" id="Layer_1" xmlns="http://www.w3.org/2000/svg" xmlns:xlink="http://www.w3.org/1999/xlink" x="0px" y="0px"
	 viewBox="0 0 1366 768" style="enable-background:new 0 0 1366 768;" xml:space="preserve">
<g>
	<g>
		<g>
			<path d="M520.1,269.1c4.4,20.4,10,40.5,16.9,60.1c3.4,9.6,7.1,19.1,11,28.4c1.7,3.9,3.1,8.7,6.9,11.1c3.6,2.2,8.5,1.5,11.3-1.7
				c5-5.8-3.4-14.3-8.5-8.5c3.3,0.7,4.3,0.1,2.8-1.8c-0.4-0.9-0.7-1.7-1.1-2.6c-0.9-2.1-1.8-4.2-2.6-6.3c-1.4-3.5-2.8-6.9-4.1-10.4
				c-3-7.8-5.8-15.8-8.3-23.8c-5.1-15.7-9.3-31.6-12.8-47.7C530.1,258.3,518.5,261.5,520.1,269.1L520.1,269.1z"/>
		</g>
	</g>
	<g>
		<g>
			<path d="M598.3,265.9c-3.5,16.1-7.7,32.1-12.8,47.7c-2.5,7.7-5.1,15.3-8,22.9c-1.4,3.8-2.9,7.5-4.4,11.3
				c-0.7,1.8-1.5,3.6-2.3,5.5c-0.5,1.1-1,2.3-1.5,3.4c-1.4,1.9-0.5,2.5,2.8,1.8c-5.1-5.8-13.5,2.7-8.5,8.5c2.6,3.1,7,3.8,10.6,2
				c4.2-2,5.6-6.5,7.3-10.5c4.1-9.6,7.9-19.4,11.4-29.3c6.9-19.7,12.5-39.8,16.9-60.1C611.5,261.5,599.9,258.3,598.3,265.9
				L598.3,265.9z"/>
		</g>
	</g>
	<g>
		<g>
			<path d="M597.3,244.8c-20.8-1-41.2-5.5-62.1-4.9c-11.1,0.3-22.3,2-33.2,4.7c-5.5,1.4-12.1,2.8-17,5.7c-6.2,3.6-9.9,13.2-4.9,19.2
				c4.7,5.5,14.5,8.3,21.4,9.1c20.8,2.5,41.5,3,62.4,1.1c23-2.1,46.5-5.5,68.7-12.2c7.4-2.2,4.2-13.8-3.2-11.6
				c-17,5.2-34.8,8.2-52.5,10.4c-18.1,2.2-36.4,3.4-54.6,2.3c-4.3-0.3-8.5-0.6-12.7-1.1c-4-0.4-8.3-0.4-12.1-1.8
				c-2.8-1.1-5.7-2.5-8.3-4c0.7,0.3-0.2,2,0.7,0.8c0.3-0.5,0.9-1.1,1.1-1.6c0.3-0.7,1.9-1.4-0.2-0.1c0.2-0.1,0.7-0.4,0.9-0.4
				c-1.2,0.1,0.8-0.3,1.3-0.5c1.1-0.4,2.2-0.8,3.2-1.1c3.6-1.2,7.3-2.2,11-3.1c9.4-2.3,19.1-3.6,28.8-3.9
				c20.6-0.5,40.8,3.9,61.3,4.9C605.1,257.2,605.1,245.2,597.3,244.8L597.3,244.8z"/>
		</g>
	</g>
</g>
</svg>
